<?xml version="1.0" standalone="no"?>
<!DOCTYPE svg PUBLIC "-//W3C//DTD SVG 20010904//EN"
 "http://www.w3.org/TR/2001/REC-SVG-20010904/DTD/svg10.dtd">
<svg version="1.0" xmlns="http://www.w3.org/2000/svg"
 width="500.000000pt" height="500.000000pt" viewBox="0 0 500.000000 500.000000"
 preserveAspectRatio="xMidYMid meet">
<metadata>
Created by potrace 1.11, written by Peter Selinger 2001-2013
</metadata>
<g transform="translate(0.000000,500.000000) scale(0.100000,-0.100000)"
fill="#000000" stroke="none">
<path d="M2441 3983 c-158 -159 -251 -274 -251 -310 0 -13 5 -23 11 -23 33 0
345 246 375 296 24 40 50 145 41 169 -4 8 -12 15 -18 15 -7 0 -78 -66 -158
-147z"/>
<path d="M2690 3964 c-22 -20 -63 -63 -91 -96 -51 -58 -52 -60 -56 -135 l-4
-76 43 33 c114 88 143 129 162 229 17 87 4 97 -54 45z"/>
<path d="M2833 3837 c-16 -18 -41 -51 -56 -73 -14 -23 -43 -54 -64 -69 -36
-26 -38 -31 -38 -82 0 -48 3 -55 23 -60 46 -11 110 74 162 216 35 95 34 87 16
94 -7 3 -27 -9 -43 -26z"/>
<path d="M3615 3605 c-104 -124 -137 -155 -166 -155 -15 0 -19 8 -19 39 0 34
-4 40 -32 51 -18 7 -59 29 -90 47 -52 31 -58 38 -58 68 0 48 -15 51 -47 9 -15
-21 -71 -85 -123 -143 -53 -58 -109 -123 -125 -144 l-28 -38 67 -68 67 -67 -3
-570 -3 -570 -57 -118 c-47 -94 -56 -121 -48 -137 6 -10 20 -19 31 -19 11 0
29 -5 40 -10 18 -10 19 -23 19 -171 0 -93 -4 -169 -11 -180 -5 -11 -17 -76
-25 -144 -8 -68 -19 -136 -26 -150 -41 -91 115 8 278 177 112 116 120 129 129
203 3 33 11 89 17 124 l10 63 39 -6 c49 -8 117 -30 192 -63 50 -23 57 -29 57
-54 0 -16 4 -29 9 -29 32 0 266 231 324 320 l36 55 5 665 c3 366 9 697 15 735
5 39 13 95 17 126 l6 57 -48 15 c-27 9 -103 30 -168 47 -153 39 -166 47 -166
105 0 25 -4 45 -9 45 -6 0 -53 -52 -106 -115z m10 -300 c71 -20 133 -39 137
-43 4 -4 3 -62 -2 -127 -6 -66 -13 -329 -16 -585 -2 -256 -7 -484 -10 -507 -5
-41 -7 -43 -38 -43 -45 0 -176 34 -223 58 -81 42 -75 -13 -71 659 2 329 8 606
12 617 11 23 33 20 211 -29z"/>
<path d="M3490 2686 c0 -550 1 -566 19 -566 19 0 19 16 23 523 3 380 7 530 16
551 11 26 16 28 50 23 20 -3 47 -9 60 -13 18 -5 22 -2 22 15 0 18 -6 21 -49
21 -26 0 -69 3 -95 6 l-46 7 0 -567z"/>
<path d="M3620 2611 c0 -422 2 -511 13 -511 11 0 15 77 22 413 13 657 14 601
-12 605 l-23 3 0 -510z"/>
<path d="M2351 3599 c-46 -49 -115 -112 -152 -139 -37 -27 -70 -58 -74 -69 -7
-23 13 -67 45 -96 51 -46 50 -32 50 -670 l0 -596 -45 -67 c-25 -37 -45 -77
-45 -90 0 -14 30 -57 80 -115 45 -51 93 -109 107 -130 26 -37 26 -38 9 -74
-19 -41 -10 -59 23 -48 24 7 126 126 234 272 79 107 80 119 19 200 l-37 48 2
660 2 660 25 75 c14 41 26 78 26 82 0 4 -21 19 -47 34 -123 69 -125 71 -118
115 5 28 3 39 -6 39 -7 0 -51 -41 -98 -91z"/>
<path d="M890 3603 c-17 -32 -52 -84 -79 -116 -65 -78 -141 -202 -141 -231 0
-14 16 -38 43 -63 l44 -39 7 -248 c4 -136 5 -394 1 -574 -6 -280 -9 -339 -27
-412 -11 -46 -25 -95 -31 -108 -14 -31 4 -46 85 -68 60 -17 67 -28 47 -66 -9
-18 -8 -24 7 -35 21 -15 115 -45 122 -39 2 3 -15 10 -38 16 -42 11 -42 12 -35
48 4 20 9 39 11 41 16 17 221 -72 291 -125 l33 -25 -20 -38 c-18 -36 -18 -51
1 -51 4 0 64 64 132 143 69 78 177 198 241 267 78 84 126 146 148 190 l33 64
3 196 c2 107 -1 237 -7 288 -6 51 -14 218 -17 370 -6 264 -5 279 14 328 26 65
29 62 -140 143 -110 53 -128 64 -128 84 0 13 9 32 20 42 25 22 26 35 3 35 -10
0 -56 -34 -103 -76 -47 -42 -116 -102 -155 -133 -38 -31 -74 -62 -78 -68 -16
-25 -22 -12 -22 43 l0 57 -110 59 c-60 32 -113 62 -117 66 -4 4 2 26 12 50 19
41 19 42 0 42 -14 0 -29 -18 -50 -57z m278 -379 c13 -9 76 -35 140 -59 l117
-43 -1 -64 c0 -35 -4 -137 -9 -228 -6 -129 -4 -205 9 -350 11 -118 16 -249 14
-360 l-3 -175 -37 -3 c-25 -2 -74 10 -140 33 -57 21 -127 44 -155 53 l-53 15
0 57 c0 32 9 125 20 206 37 284 42 360 41 629 0 149 2 278 5 288 7 21 23 22
52 1z"/>
<path d="M1197 2703 c-4 -416 -6 -433 -42 -575 -6 -24 -4 -28 27 -36 30 -8 34
-6 40 17 20 69 30 295 27 621 -1 195 -1 362 2 370 3 10 -5 16 -22 18 l-27 3
-5 -418z"/>
<path d="M1281 3107 c2 -2 16 -11 32 -20 26 -17 27 -17 27 3 0 16 -7 20 -32
20 -17 0 -29 -1 -27 -3z"/>
<path d="M1332 2960 c0 -14 2 -19 5 -12 2 6 2 18 0 25 -3 6 -5 1 -5 -13z"/>
<path d="M1328 2340 c-4 -107 -11 -213 -17 -235 -11 -42 -3 -55 33 -55 18 0
19 7 12 183 -13 301 -21 331 -28 107z"/>
<path d="M2671 3383 c-14 -51 -35 -884 -28 -1131 5 -176 8 -207 25 -233 19
-30 19 -26 26 583 l7 612 24 71 c14 38 26 74 27 78 2 5 -14 20 -34 33 l-37 24
-10 -37z"/>
<path d="M4175 3368 c-4 -13 -9 -340 -12 -728 l-5 -705 -25 -50 c-46 -90 -111
-171 -225 -279 -112 -105 -112 -106 -90 -121 13 -10 22 -27 22 -41 0 -22 2
-23 21 -13 44 23 259 243 301 307 l43 66 -3 525 c-4 544 7 857 34 962 17 70
17 64 -2 83 -22 23 -51 20 -59 -6z"/>
<path d="M2798 3253 c-7 -19 -12 -241 -16 -683 l-4 -655 21 -19 c26 -23 24
-48 22 254 -1 135 3 405 8 600 8 343 9 357 33 422 l25 68 -32 20 c-41 26 -43
25 -57 -7z"/>
<path d="M1826 3244 c-11 -28 -6 -264 10 -469 21 -273 28 -557 16 -625 -22
-115 -100 -224 -384 -536 -143 -158 -147 -162 -126 -176 l22 -15 -22 -37 c-18
-30 -19 -38 -7 -42 30 -12 456 463 521 581 l39 70 3 204 c2 112 -1 248 -7 303
-6 54 -14 217 -17 361 -6 249 -5 264 14 313 20 50 20 53 3 68 -23 20 -57 21
-65 0z"/>
<path d="M4302 3143 c-8 -80 -12 -317 -12 -737 l0 -619 -51 -83 c-47 -77 -154
-193 -279 -302 l-35 -31 23 -16 c12 -9 22 -27 22 -41 0 -13 4 -24 9 -24 12 0
219 193 261 244 20 25 52 68 70 96 l33 52 -6 501 c-6 547 3 848 29 970 18 82
16 91 -26 102 l-26 6 -12 -118z"/>
<path d="M1959 3119 c-12 -23 -7 -239 11 -494 18 -257 23 -546 11 -606 -24
-116 -98 -218 -390 -539 -150 -165 -137 -147 -117 -169 16 -17 16 -20 -4 -54
-32 -54 -6 -57 47 -6 131 127 459 524 495 598 31 63 36 253 14 496 -9 99 -19
286 -23 415 -5 226 -5 237 17 290 l22 55 -22 17 c-29 24 -47 23 -61 -3z"/>
<path d="M2730 1822 c0 -14 -13 -35 -32 -50 -45 -39 -71 -66 -157 -167 -65
-76 -76 -95 -78 -130 -1 -22 -5 -55 -9 -72 -10 -53 25 -43 87 25 75 82 239
302 239 321 0 9 -11 34 -25 56 -21 35 -24 37 -25 17z"/>
<path d="M2857 1682 c-4 -20 -25 -46 -62 -78 -70 -61 -218 -241 -205 -249 13
-8 13 -52 0 -60 -5 -3 -10 -17 -10 -31 0 -40 30 -28 95 39 81 83 235 288 235
313 0 10 -11 36 -24 58 l-23 38 -6 -30z"/>
<path d="M3436 1598 c16 -49 24 -95 24 -138 0 -44 -2 -47 -107 -149 -60 -57
-131 -122 -159 -143 -45 -34 -52 -44 -57 -83 -4 -25 -14 -59 -23 -76 -8 -17
-13 -34 -9 -37 3 -4 32 7 63 23 40 20 100 72 198 170 l141 140 7 60 c4 33 12
93 18 134 l11 73 40 -5 c66 -9 27 13 -60 34 -98 23 -96 23 -87 -3z"/>
<path d="M1045 1479 c32 -10 61 -17 63 -15 5 6 -89 36 -107 35 -9 0 11 -9 44
-20z"/>
<path d="M3565 1473 c15 -38 25 -90 25 -143 l0 -55 -91 -87 c-50 -49 -122
-111 -160 -140 -58 -45 -69 -58 -69 -83 0 -16 -9 -50 -20 -74 -25 -55 -25 -54
7 -46 49 12 145 90 264 212 99 102 118 126 122 159 4 22 11 79 18 128 10 74
15 89 31 94 33 8 1 22 -106 47 -25 5 -28 4 -21 -12z"/>
</g>
</svg>
